<svg width="146" height="62" viewBox="0 0 146 62" fill="none" xmlns="http://www.w3.org/2000/svg">
<path d="M31.4644 25.8626L24.7901 37.6721H18.1159L11.4416 25.8626V44.2854H2.86035V11.2188H11.9183L21.453 28.6968L30.9877 11.2188H40.0457V44.2854H31.4644V25.8626ZM61.5174 44.2854H44.3549V37.6721H48.6456V17.8321H44.3549V11.2188H61.5174V17.8321H57.2268V37.6721H61.5174V44.2854ZM94.885 44.2854H85.8271L74.3855 24.4454V44.2854H65.8042V11.2188H74.8622L86.3038 31.0588V11.2188H94.885V44.2854Z" fill="#DADDFC"/>
<path d="M133.93 47.2383H2.97949V48.2224H133.93V47.2383Z" fill="white"/>
<path d="M15.8169 52.0517L18.4211 58.2265L21.035 52.0517H21.8304V59.0482H21.2338V56.0017L21.2824 52.8782L18.6539 59.0482H18.1932L15.5744 52.9023L15.6229 55.9825V59.0482H15.0264V52.0517H15.8169ZM26.8594 58.3899C26.5102 58.8928 25.9525 59.1444 25.1863 59.1444C24.627 59.1444 24.2018 58.9842 23.9109 58.6638C23.6199 58.3402 23.4711 57.8629 23.4647 57.2318V53.8489H24.0418V57.1598C24.0418 58.1496 24.4459 58.6445 25.2542 58.6445C26.0948 58.6445 26.6266 58.3002 26.8497 57.6114V53.8489H27.4317V59.0482H26.8691L26.8594 58.3899ZM32.0873 57.7267C32.0873 57.4416 31.9709 57.2126 31.7381 57.0396C31.5086 56.8666 31.1611 56.7321 30.6954 56.6359C30.2299 56.5366 29.8678 56.4245 29.6092 56.2996C29.3537 56.1714 29.1629 56.016 29.0369 55.8335C28.914 55.6509 28.8526 55.4298 28.8526 55.1704C28.8526 54.7603 29.0256 54.4223 29.3715 54.1564C29.7174 53.8874 30.1604 53.7527 30.7003 53.7527C31.2855 53.7527 31.7543 53.8969 32.1067 54.1853C32.4623 54.4704 32.6401 54.8435 32.6401 55.3049H32.0582C32.0582 55.0005 31.9289 54.7475 31.6702 54.5457C31.4148 54.3438 31.0915 54.2429 30.7003 54.2429C30.3188 54.2429 30.0116 54.3279 29.7789 54.4976C29.5493 54.6641 29.4346 54.882 29.4346 55.1511C29.4346 55.4106 29.5299 55.6124 29.7207 55.7566C29.9147 55.8975 30.2655 56.0273 30.773 56.1458C31.2839 56.2643 31.6654 56.3909 31.9176 56.5254C32.1729 56.66 32.3621 56.8217 32.485 57.0108C32.6078 57.1997 32.6692 57.4288 32.6692 57.6979C32.6692 58.1368 32.4897 58.4876 32.1309 58.7503C31.7752 59.013 31.3097 59.1444 30.7343 59.1444C30.1232 59.1444 29.627 58.9985 29.2454 58.707C28.8672 58.4123 28.6781 58.0407 28.6781 57.5922H29.26C29.2826 57.9286 29.4248 58.1913 29.6868 58.3803C29.9518 58.5661 30.301 58.659 30.7343 58.659C31.1384 58.659 31.4649 58.5709 31.7139 58.3947C31.9628 58.2185 32.0873 57.9959 32.0873 57.7267ZM34.6285 59.0482H34.0465V53.8489H34.6285V59.0482ZM33.9447 52.3449C33.9447 52.2359 33.9802 52.1446 34.0514 52.071C34.1225 51.994 34.2195 51.9556 34.3424 51.9556C34.4652 51.9556 34.5622 51.994 34.6333 52.071C34.7077 52.1446 34.7449 52.2359 34.7449 52.3449C34.7449 52.4538 34.7077 52.545 34.6333 52.6187C34.5622 52.6924 34.4652 52.7293 34.3424 52.7293C34.2195 52.7293 34.1225 52.6924 34.0514 52.6187C33.9802 52.545 33.9447 52.4538 33.9447 52.3449ZM38.1493 58.659C38.5534 58.659 38.8913 58.5469 39.1628 58.3226C39.4377 58.0952 39.5863 57.802 39.609 57.4432H40.1667C40.1506 57.7604 40.0504 58.0503 39.866 58.313C39.6818 58.5725 39.4361 58.7759 39.1289 58.9232C38.825 59.0707 38.4984 59.1444 38.1493 59.1444C37.4606 59.1444 36.9142 58.9073 36.5101 58.4331C36.1093 57.959 35.9087 57.3215 35.9087 56.5206V56.3477C35.9087 55.8351 35.9993 55.3818 36.1804 54.9877C36.3614 54.5937 36.6201 54.2894 36.9563 54.0747C37.2957 53.8601 37.6918 53.7527 38.1444 53.7527C38.7199 53.7527 39.1935 53.9226 39.5654 54.2621C39.9404 54.6017 40.1408 55.0486 40.1667 55.6028H39.609C39.5832 55.196 39.4344 54.8677 39.1628 54.6177C38.8945 54.3678 38.555 54.2429 38.1444 54.2429C37.6207 54.2429 37.2133 54.4303 36.9223 54.8052C36.6346 55.1799 36.4907 55.7053 36.4907 56.3812V56.5494C36.4907 57.2126 36.6346 57.73 36.9223 58.1016C37.2133 58.4732 37.6223 58.659 38.1493 58.659ZM44.6089 59.0482H44.0124V52.0517H44.6089V59.0482ZM46.9464 53.8489L46.9658 54.7379C47.163 54.4175 47.4088 54.174 47.7029 54.0074C47.9972 53.8377 48.3221 53.7527 48.6778 53.7527C49.2403 53.7527 49.659 53.9097 49.9338 54.2237C50.2086 54.5377 50.3476 55.0086 50.3508 55.6365V59.0482H49.7738V55.6316C49.7705 55.1671 49.6703 54.8212 49.4731 54.5937C49.2791 54.3662 48.9671 54.2526 48.5371 54.2526C48.1782 54.2526 47.8598 54.3647 47.5818 54.589C47.307 54.81 47.1033 55.1095 46.9707 55.4875V59.0482H46.3936V53.8489H46.9464ZM52.2713 59.0482V54.3198H51.4032V53.8489H52.2713V53.2193C52.2713 52.6876 52.4071 52.2791 52.6787 51.994C52.9535 51.7089 53.335 51.5664 53.8231 51.5664C54.043 51.5664 54.2483 51.5936 54.4391 51.6481L54.3954 52.1286C54.2337 52.0902 54.0575 52.071 53.8668 52.071C53.5467 52.071 53.2978 52.1703 53.1199 52.3689C52.9422 52.5643 52.8533 52.843 52.8533 53.205V53.8489H54.1044V54.3198H52.8533V59.0482H52.2713ZM54.8222 56.3717C54.8222 55.872 54.9192 55.4218 55.1132 55.0214C55.3103 54.6209 55.5868 54.3102 55.9424 54.0891C56.3014 53.8649 56.7071 53.7527 57.1597 53.7527C57.858 53.7527 58.4238 53.9962 58.857 54.4832C59.2903 54.967 59.5069 55.6092 59.5069 56.4101V56.5302C59.5069 57.0332 59.4083 57.4865 59.211 57.8901C59.0171 58.2905 58.7422 58.5998 58.3867 58.8175C58.031 59.0354 57.6253 59.1444 57.1694 59.1444C56.4743 59.1444 55.9084 58.9025 55.472 58.4188C55.0388 57.9318 54.8222 57.2879 54.8222 56.487V56.3717ZM55.4041 56.5302C55.4041 57.1517 55.5658 57.6627 55.8891 58.0631C56.2156 58.4604 56.6424 58.659 57.1694 58.659C57.6931 58.659 58.1167 58.4604 58.44 58.0631C58.7666 57.6627 58.9298 57.1357 58.9298 56.4822V56.3717C58.9298 55.9744 58.8555 55.6109 58.7067 55.2809C58.558 54.9509 58.3494 54.6962 58.0811 54.5168C57.8128 54.3343 57.5056 54.2429 57.1597 54.2429C56.6424 54.2429 56.2205 54.4448 55.8939 54.8484C55.5674 55.2488 55.4041 55.7742 55.4041 56.4245V56.5302ZM63.1343 54.339C63.0115 54.3166 62.8806 54.3054 62.7415 54.3054C62.3794 54.3054 62.0723 54.4063 61.8202 54.6081C61.5712 54.8067 61.3934 55.0967 61.2867 55.4779V59.0482H60.7096V53.8489H61.277L61.2867 54.6754C61.5938 54.0603 62.0868 53.7527 62.7658 53.7527C62.9275 53.7527 63.0552 53.7736 63.149 53.8152L63.1343 54.339ZM64.5844 53.8489L64.6038 54.6946C64.7978 54.3807 65.0403 54.1452 65.3313 53.9882C65.6222 53.8313 65.9455 53.7527 66.3012 53.7527C67.1288 53.7527 67.6542 54.0891 67.8773 54.7619C68.0648 54.4384 68.3154 54.1901 68.629 54.0171C68.9426 53.8409 69.2885 53.7527 69.6668 53.7527C70.7919 53.7527 71.3658 54.3614 71.3884 55.5788V59.0482H70.8064V55.6221C70.8032 55.1575 70.7014 54.8131 70.5009 54.589C70.3037 54.3647 69.9804 54.2526 69.531 54.2526C69.1139 54.259 68.7615 54.3935 68.4738 54.6562C68.1861 54.9157 68.026 55.2328 67.9937 55.6076V59.0482H67.4118V55.5788C67.4085 55.1335 67.3018 54.8019 67.0916 54.5841C66.8848 54.3631 66.5647 54.2526 66.1314 54.2526C65.7661 54.2526 65.4525 54.3566 65.1906 54.5648C64.9288 54.7699 64.7348 55.0758 64.6087 55.4827V59.0482H64.0267V53.8489H64.5844ZM76.1749 59.0482C76.1167 58.8849 76.0796 58.643 76.0634 58.3226C75.8597 58.5853 75.5995 58.7887 75.2826 58.9329C74.969 59.0738 74.636 59.1444 74.2836 59.1444C73.7792 59.1444 73.3702 59.005 73.0567 58.7263C72.7463 58.4475 72.5911 58.0952 72.5911 57.6691C72.5911 57.1629 72.8028 56.7625 73.2264 56.4677C73.6532 56.1731 74.2464 56.0257 75.0062 56.0257H76.0585V55.4346C76.0585 55.063 75.9421 54.7715 75.7094 54.5601C75.4799 54.3455 75.1436 54.2381 74.7006 54.2381C74.2965 54.2381 73.9619 54.3407 73.6968 54.5457C73.4317 54.7506 73.2991 54.9974 73.2991 55.2857L72.7172 55.2809C72.7172 54.8677 72.9112 54.5104 73.2991 54.2093C73.6871 53.905 74.164 53.7527 74.7297 53.7527C75.3149 53.7527 75.7757 53.8986 76.1119 54.1901C76.4513 54.4783 76.6259 54.882 76.6357 55.401V57.8613C76.6357 58.3643 76.689 58.7407 76.7957 58.9906V59.0482H76.1749ZM74.3515 58.635C74.7395 58.635 75.0854 58.5421 75.3893 58.3563C75.6964 58.1705 75.9196 57.9222 76.0585 57.6114V56.4677H75.0207C74.442 56.4741 73.9894 56.5799 73.6628 56.7849C73.3363 56.9868 73.1731 57.2655 73.1731 57.621C73.1731 57.9125 73.2813 58.1544 73.498 58.3466C73.7179 58.5388 74.0023 58.635 74.3515 58.635ZM79.0896 52.5179V53.8489H80.1758V54.3198H79.0896V57.7844C79.0896 58.0728 79.1413 58.2874 79.2447 58.4283C79.3515 58.5693 79.5277 58.6398 79.7734 58.6398C79.8703 58.6398 80.0271 58.6238 80.2438 58.5917L80.268 59.0626C80.116 59.1171 79.9091 59.1444 79.6472 59.1444C79.2496 59.1444 78.9603 59.0306 78.7792 58.8032C78.5981 58.5725 78.5077 58.2346 78.5077 57.7892V54.3198H77.5426V53.8489H78.5077V52.5179H79.0896ZM82.0284 59.0482H81.4464V53.8489H82.0284V59.0482ZM81.3446 52.3449C81.3446 52.2359 81.3802 52.1446 81.4513 52.071C81.5224 51.994 81.6194 51.9556 81.7423 51.9556C81.8652 51.9556 81.9621 51.994 82.0333 52.071C82.1076 52.1446 82.1448 52.2359 82.1448 52.3449C82.1448 52.4538 82.1076 52.545 82.0333 52.6187C81.9621 52.6924 81.8652 52.7293 81.7423 52.7293C81.6194 52.7293 81.5224 52.6924 81.4513 52.6187C81.3802 52.545 81.3446 52.4538 81.3446 52.3449ZM83.2893 56.3717C83.2893 55.872 83.3863 55.4218 83.5803 55.0214C83.7775 54.6209 84.054 54.3102 84.4095 54.0891C84.7685 53.8649 85.1742 53.7527 85.6268 53.7527C86.3251 53.7527 86.8909 53.9962 87.3242 54.4832C87.7574 54.967 87.974 55.6092 87.974 56.4101V56.5302C87.974 57.0332 87.8754 57.4865 87.6782 57.8901C87.4842 58.2905 87.2093 58.5998 86.8538 58.8175C86.4981 59.0354 86.0924 59.1444 85.6365 59.1444C84.9414 59.1444 84.3757 58.9025 83.9392 58.4188C83.5059 57.9318 83.2893 57.2879 83.2893 56.487V56.3717ZM83.8712 56.5302C83.8712 57.1517 84.0329 57.6627 84.3562 58.0631C84.6828 58.4604 85.1095 58.659 85.6365 58.659C86.1602 58.659 86.5838 58.4604 86.9071 58.0631C87.2337 57.6627 87.3969 57.1357 87.3969 56.4822V56.3717C87.3969 55.9744 87.3226 55.6109 87.1738 55.2809C87.0251 54.9509 86.8165 54.6962 86.5483 54.5168C86.2799 54.3343 85.9727 54.2429 85.6268 54.2429C85.1095 54.2429 84.6876 54.4448 84.3611 54.8484C84.0345 55.2488 83.8712 55.7742 83.8712 56.4245V56.5302ZM89.7296 53.8489L89.749 54.7379C89.9462 54.4175 90.1919 54.174 90.4861 54.0074C90.7803 53.8377 91.1053 53.7527 91.4608 53.7527C92.0235 53.7527 92.4421 53.9097 92.7169 54.2237C92.9917 54.5377 93.1308 55.0086 93.134 55.6365V59.0482H92.5569V55.6316C92.5536 55.1671 92.4534 54.8212 92.2562 54.5937C92.0622 54.3662 91.7502 54.2526 91.3202 54.2526C90.9613 54.2526 90.6429 54.3647 90.3648 54.589C90.09 54.81 89.8864 55.1095 89.7538 55.4875V59.0482H89.1767V53.8489H89.7296ZM101.087 55.6941H97.7847V58.5485H101.582V59.0482H97.1882V52.0517H101.558V52.5562H97.7847V55.1944H101.087V55.6941ZM104.215 58.2553L105.811 53.8489H106.407L104.448 59.0482H103.978L102.009 53.8489H102.605L104.215 58.2553ZM109.327 59.1444C108.881 59.1444 108.477 59.0354 108.114 58.8175C107.756 58.5998 107.476 58.297 107.275 57.9094C107.074 57.5185 106.975 57.0813 106.975 56.5976V56.3909C106.975 55.8912 107.072 55.441 107.266 55.0406C107.463 54.6401 107.736 54.3262 108.086 54.0988C108.434 53.8681 108.813 53.7527 109.22 53.7527C109.857 53.7527 110.361 53.9691 110.733 54.4015C111.108 54.8308 111.296 55.4186 111.296 56.165V56.487H107.552V56.5976C107.552 57.1869 107.722 57.6787 108.061 58.0728C108.403 58.4636 108.833 58.659 109.351 58.659C109.662 58.659 109.935 58.6029 110.17 58.4908C110.41 58.3787 110.626 58.1993 110.821 57.9526L111.184 58.2265C110.757 58.8384 110.138 59.1444 109.327 59.1444ZM109.22 54.2429C108.784 54.2429 108.415 54.4015 108.114 54.7187C107.817 55.0358 107.636 55.4619 107.571 55.9968H110.719V55.9344C110.703 55.4346 110.559 55.0278 110.287 54.7138C110.015 54.3999 109.66 54.2429 109.22 54.2429ZM112.978 53.8489L112.998 54.7379C113.196 54.4175 113.441 54.174 113.735 54.0074C114.029 53.8377 114.355 53.7527 114.71 53.7527C115.272 53.7527 115.691 53.9097 115.966 54.2237C116.241 54.5377 116.38 55.0086 116.383 55.6365V59.0482H115.806V55.6316C115.803 55.1671 115.702 54.8212 115.505 54.5937C115.311 54.3662 114.999 54.2526 114.569 54.2526C114.211 54.2526 113.892 54.3647 113.614 54.589C113.339 54.81 113.135 55.1095 113.003 55.4875V59.0482H112.426V53.8489H112.978ZM118.788 52.5179V53.8489H119.875V54.3198H118.788V57.7844C118.788 58.0728 118.84 58.2874 118.943 58.4283C119.05 58.5693 119.226 58.6398 119.473 58.6398C119.569 58.6398 119.726 58.6238 119.942 58.5917L119.967 59.0626C119.815 59.1171 119.608 59.1444 119.346 59.1444C118.948 59.1444 118.659 59.0306 118.478 58.8032C118.297 58.5725 118.206 58.2346 118.206 57.7892V54.3198H117.241V53.8489H118.206V52.5179H118.788Z" fill="#DADDFC"/>
<path d="M133.165 11.1289H97.8682V44.5135H133.165V11.1289Z" fill="#DADDFC"/>
<path d="M113.156 19.6891L122.897 25.1105V30.5319L113.156 35.9534H128.352V42.9239H101.077V35.5662L115.494 27.8213L101.077 20.0764V12.7188H128.352V19.6891H113.156Z" fill="#2E4C6D"/>
</svg>
